<svg width="58" height="15" viewBox="0 0 58 15" fill="none" xmlns="http://www.w3.org/2000/svg">
<path d="M15.0586 11.395V2.05322H20.354V3.22346H16.1534V6.09566H19.929V7.2659H16.1534V10.1962H20.6468V11.3665H15.0643L15.0586 11.395ZM26.2156 11.395L24.3939 8.91741L22.5813 11.3956H21.2973L23.7895 8.08186L21.1652 4.65006H22.6092L24.4024 7.21664L26.2241 4.65006H27.6403L25.1481 8.08186L27.4984 11.3956L26.2156 11.395ZM29.2643 10.3861V15H28.1695V8.11628C28.1695 6.35617 29.4534 4.48746 31.4637 4.48746C33.4933 4.48746 35.0223 5.82505 35.0223 8.02726C35.0223 10.1707 33.474 11.6561 31.7092 11.6561C30.8502 11.6561 29.6984 11.2626 29.2643 10.398V10.3861ZM33.8704 8.01599C33.8704 6.51165 32.9362 5.61676 31.2746 5.70518C30.4771 5.73485 29.245 6.3443 29.3492 8.49429C29.3777 9.19276 30.0761 10.5001 31.5959 10.5001C32.9078 10.5102 33.871 9.72862 33.871 8.02192L33.8704 8.01599ZM35.9576 11.389V4.64888H37.0525V5.37642C37.5908 4.7373 38.4213 4.5112 39.2991 4.5112V5.7396C39.167 5.70993 37.8551 5.54377 37.0525 7.33236V11.427H35.9576V11.389ZM39.6005 8.02133C39.6005 6.07488 40.9408 4.48153 42.7814 4.48153C45.0844 4.48153 45.9343 6.07429 45.9343 8.11034V8.67113H40.7996C40.885 9.94938 41.9787 10.6176 42.9893 10.5986C43.7298 10.5689 44.2448 10.3434 44.7825 9.79153L45.5094 10.563C44.8389 11.2318 43.9805 11.6739 42.942 11.6739C40.9881 11.6442 39.6005 10.1399 39.6005 8.01599V8.02133ZM42.6965 5.6221C41.6483 5.6221 40.8463 6.57158 40.7996 7.59822H44.7831C44.7831 6.60482 44.0995 5.6221 42.6971 5.6221H42.6965Z" fill="#E43225"/>
<path d="M46.5 10.4509L47.2975 9.6937C47.269 9.6937 47.7037 10.1364 47.7504 10.1655C47.9254 10.3277 48.1361 10.4425 48.3639 10.4996C49.0622 10.6954 50.3177 10.6373 50.4214 9.63436C50.4784 9.07357 50.0722 8.76914 49.6239 8.56619C49.0389 8.34069 48.3969 8.26116 47.8022 7.97632C47.1317 7.6713 46.7073 7.14552 46.7073 6.36338C46.7073 4.32792 49.4918 3.99323 50.7472 4.93737L51.3892 5.5765L50.5917 6.24529C50.1856 5.74384 49.817 5.48808 48.9586 5.48808C48.5336 5.48808 47.9332 5.68391 47.8352 6.15687C47.6746 6.82566 48.4015 7.08143 48.8834 7.22504C49.5254 7.39239 50.2237 7.50039 50.7803 7.86416C51.555 8.36561 51.7487 9.45692 51.4508 10.2931C51.13 11.2176 50.1668 11.5713 49.3078 11.601C48.2824 11.6603 47.4109 11.3256 46.6834 10.5684C46.6361 10.588 46.504 10.4497 46.504 10.4497L46.5 10.4509Z" fill="#E43225"/>
<path d="M52.1484 10.4509L52.9459 9.6937C52.9175 9.6937 53.3521 10.1364 53.3988 10.1655C53.5738 10.3277 53.7845 10.4425 54.0123 10.4996C54.7107 10.6954 55.9662 10.6373 56.0698 9.63436C56.1268 9.07357 55.7207 8.76914 55.2724 8.56619C54.6873 8.34069 54.0453 8.26116 53.4506 7.97632C52.7802 7.6713 52.3558 7.14552 52.3558 6.36338C52.3558 4.32792 55.1402 3.99323 56.3957 4.93737L57.0377 5.5765L56.2402 6.24529C55.834 5.74384 55.4655 5.48808 54.607 5.48808C54.1821 5.48808 53.5817 5.68391 53.4837 6.15687C53.323 6.82566 54.0499 7.08143 54.5318 7.22504C55.1738 7.39239 55.8722 7.50039 56.4287 7.86416C57.2034 8.36561 57.3971 9.45692 57.0992 10.2931C56.7785 11.2176 55.8152 11.5713 54.9562 11.601C53.9308 11.6603 53.0593 11.3256 52.3319 10.5684C52.2846 10.588 52.1524 10.4497 52.1524 10.4497L52.1484 10.4509Z" fill="#E43225"/>
<path d="M7.62199 11.3949L6.82449 9.16243H2.48724L1.68974 11.3949H0.539062L4.02242 2.05316H5.27791L8.73279 11.3949H7.62199ZM4.60061 3.40024L2.96745 8.03195H6.36536L4.60061 3.40024ZM9.44371 11.3949V2.05316H10.567V11.3949H9.44371ZM12.2566 11.3949V4.79302H13.3799V11.4008L12.2566 11.3949ZM14.4463 2.64303V2.52434C13.5873 2.49467 12.898 1.76713 12.8701 0.882324H12.7009C12.6724 1.77721 11.9741 2.49526 11.1247 2.52434V2.64303C11.9837 2.6727 12.673 3.40024 12.7009 4.28504H12.8707C12.8853 3.85439 13.056 3.44551 13.3485 3.1408C13.641 2.8361 14.0335 2.65822 14.4469 2.64303H14.4463Z" fill="#F7971D"/>
</svg>
