<svg width="121" height="29" viewBox="0 0 121 29" fill="none" xmlns="http://www.w3.org/2000/svg">
<path d="M30.9922 21.5947V2.40527H42.2942V4.80914H33.329V10.7091H41.3873V13.113H33.329V19.1324H42.9192V21.5362H31.0043L30.9922 21.5947ZM54.8048 21.5947L50.9167 16.5054L47.048 21.596H44.3076L49.6267 14.7891L44.0256 7.73961H47.1076L50.9349 13.0118L54.8231 7.73961H57.8455L52.5264 14.7891L57.5428 21.596L54.8048 21.5947ZM61.3118 19.5224V29.0002H58.975V14.8598C58.975 11.2442 61.7154 7.4056 66.006 7.4056C70.3379 7.4056 73.6011 10.1532 73.6011 14.6769C73.6011 19.0799 70.2965 22.1311 66.53 22.1311C64.6966 22.1311 62.2382 21.3229 61.3118 19.5468V19.5224ZM71.1427 14.6538C71.1427 11.5636 69.1488 9.72535 65.6023 9.90699C63.9002 9.96794 61.2704 11.2198 61.4929 15.6363C61.5537 17.071 63.0443 19.7565 66.288 19.7565C69.088 19.7772 71.1439 18.1718 71.1439 14.666L71.1427 14.6538ZM75.5974 21.5825V7.73717H77.9342V9.23166C79.0831 7.9188 80.8557 7.45436 82.7293 7.45436V9.97769C82.4472 9.91674 79.6472 9.57542 77.9342 13.2495V21.6606H75.5974V21.5825ZM83.3724 14.6647C83.3724 10.6664 86.2332 7.39341 90.1615 7.39341C95.0769 7.39341 96.8909 10.6652 96.8909 14.8476V15.9995H85.9317C86.1141 18.6253 88.4484 19.9979 90.6052 19.9588C92.1858 19.8979 93.2848 19.4347 94.4326 18.301L95.9839 19.8857C94.5529 21.2595 92.7207 22.1677 90.5043 22.1677C86.3341 22.1067 83.3724 19.0166 83.3724 14.6538V14.6647ZM89.9803 9.73633C87.7432 9.73633 86.0314 11.6867 85.9317 13.7956H94.4338C94.4338 11.755 92.9748 9.73633 89.9815 9.73633H89.9803Z" fill="white"/>
<path d="M98.1016 19.6555L99.8037 18.1C99.7429 18.1 100.671 19.0094 100.77 19.0691C101.144 19.4024 101.594 19.6381 102.08 19.7554C103.57 20.1577 106.25 20.0382 106.471 17.9781C106.593 16.8262 105.726 16.2008 104.769 15.7839C103.52 15.3207 102.15 15.1573 100.881 14.5722C99.4499 13.9457 98.5441 12.8656 98.5441 11.259C98.5441 7.07783 104.487 6.39032 107.167 8.32974L108.537 9.6426L106.835 11.0164C105.968 9.98636 105.181 9.46097 103.349 9.46097C102.442 9.46097 101.161 9.86324 100.951 10.8348C100.609 12.2086 102.16 12.734 103.188 13.029C104.559 13.3727 106.049 13.5946 107.237 14.3418C108.891 15.3719 109.304 17.6136 108.668 19.3312C107.984 21.2304 105.928 21.9569 104.094 22.0179C101.906 22.1398 100.046 21.4523 98.493 19.8968C98.3921 19.937 98.1101 19.653 98.1101 19.653L98.1016 19.6555Z" fill="white"/>
<path d="M110.148 19.6555L111.851 18.1C111.79 18.1 112.717 19.0094 112.817 19.0691C113.191 19.4024 113.64 19.6381 114.127 19.7554C115.617 20.1577 118.297 20.0382 118.518 17.9781C118.64 16.8262 117.773 16.2008 116.816 15.7839C115.567 15.3207 114.197 15.1573 112.928 14.5722C111.497 13.9457 110.591 12.8656 110.591 11.259C110.591 7.07783 116.534 6.39032 119.213 8.32974L120.584 9.6426L118.882 11.0164C118.015 9.98636 117.228 9.46097 115.396 9.46097C114.489 9.46097 113.207 9.86324 112.998 10.8348C112.655 12.2086 114.207 12.734 115.235 13.029C116.606 13.3727 118.096 13.5946 119.284 14.3418C120.937 15.3719 121.351 17.6136 120.715 19.3312C120.03 21.2304 117.975 21.9569 116.141 22.0179C113.953 22.1398 112.092 21.4523 110.54 19.8968C110.439 19.937 110.157 19.653 110.157 19.653L110.148 19.6555Z" fill="white"/>
<path d="M15.1172 21.5945L13.4151 17.0087H4.15803L2.45591 21.5945H0L7.43461 2.40508H10.1142L17.488 21.5945H15.1172ZM8.66864 5.17221L5.18295 14.6865H12.4352L8.66864 5.17221ZM19.0054 21.5945V2.40508H21.4029V21.5945H19.0054ZM25.009 21.5945V8.0332H27.4065V21.6067L25.009 21.5945ZM29.6825 3.61677V3.37297C27.8491 3.31202 26.378 1.81753 26.3184 0H25.9573C25.8965 1.83825 24.4059 3.31324 22.5932 3.37297V3.61677C24.4266 3.67772 25.8977 5.17221 25.9573 6.98973H26.3196C26.3507 6.10511 26.7152 5.2652 27.3394 4.63928C27.9637 4.01337 28.8014 3.64798 29.6837 3.61677H29.6825Z" fill="white"/>
</svg>
