<svg width="150" height="150" viewBox="0 0 150 150" fill="none" xmlns="http://www.w3.org/2000/svg">
<path fill-rule="evenodd" clip-rule="evenodd" d="M19.9455 30C18.8991 30 17.8955 30.4157 17.1556 31.1556C16.4157 31.8955 16 32.8991 16 33.9455V115.395C16 116.442 16.4157 117.445 17.1556 118.185C17.8955 118.925 18.8991 119.341 19.9455 119.341H130.507C131.553 119.341 132.557 118.925 133.297 118.185C134.037 117.445 134.452 116.442 134.452 115.395V33.9455C134.452 32.8991 134.037 31.8955 133.297 31.1556C132.557 30.4157 131.553 30 130.507 30H19.9455ZM27.5602 43.3455C28.508 43.3455 29.4169 42.969 30.0871 42.2988C30.7573 41.6286 31.1338 40.7197 31.1338 39.7719C31.1338 38.8241 30.7573 37.9152 30.0871 37.245C29.4169 36.5748 28.508 36.1983 27.5602 36.1983C26.6124 36.1983 25.7034 36.5748 25.0333 37.245C24.3631 37.9152 23.9866 38.8241 23.9866 39.7719C23.9866 40.7197 24.3631 41.6286 25.0333 42.2988C25.7034 42.969 26.6124 43.3455 27.5602 43.3455ZM43.4032 39.7709C43.4032 40.7187 43.0267 41.6277 42.3565 42.2978C41.6863 42.968 40.7773 43.3445 39.8296 43.3445C38.8818 43.3445 37.9728 42.968 37.3027 42.2978C36.6325 41.6277 36.256 40.7187 36.256 39.7709C36.256 38.8231 36.6325 37.9142 37.3027 37.244C37.9728 36.5738 38.8818 36.1973 39.8296 36.1973C40.7773 36.1973 41.6863 36.5738 42.3565 37.244C43.0267 37.9142 43.4032 38.8231 43.4032 39.7709ZM52.1009 43.3455C53.0487 43.3455 53.9576 42.969 54.6278 42.2988C55.298 41.6286 55.6745 40.7197 55.6745 39.7719C55.6745 38.8241 55.298 37.9152 54.6278 37.245C53.9576 36.5748 53.0487 36.1983 52.1009 36.1983C51.1531 36.1983 50.2442 36.5748 49.574 37.245C48.9038 37.9152 48.5273 38.8241 48.5273 39.7719C48.5273 40.7197 48.9038 41.6286 49.574 42.2988C50.2442 42.969 51.1531 43.3455 52.1009 43.3455Z" fill="url(#paint0_linear_56_2542)"/>
<path opacity="0.8" fill-rule="evenodd" clip-rule="evenodd" d="M19.9455 30C18.8991 30 17.8955 30.4157 17.1556 31.1556C16.4157 31.8955 16 32.8991 16 33.9455V49.5438H134.452V33.9455C134.452 32.8991 134.037 31.8955 133.297 31.1556C132.557 30.4157 131.553 30 130.507 30H19.9455ZM27.5602 43.3455C28.508 43.3455 29.4169 42.969 30.0871 42.2988C30.7573 41.6286 31.1338 40.7197 31.1338 39.7719C31.1338 38.8241 30.7573 37.9152 30.0871 37.245C29.4169 36.5748 28.508 36.1983 27.5602 36.1983C26.6124 36.1983 25.7034 36.5748 25.0333 37.245C24.3631 37.9152 23.9866 38.8241 23.9866 39.7719C23.9866 40.7197 24.3631 41.6286 25.0333 42.2988C25.7034 42.969 26.6124 43.3455 27.5602 43.3455ZM43.4032 39.7709C43.4032 40.7187 43.0267 41.6277 42.3565 42.2978C41.6863 42.968 40.7773 43.3445 39.8296 43.3445C38.8818 43.3445 37.9728 42.968 37.3027 42.2978C36.6325 41.6277 36.256 40.7187 36.256 39.7709C36.256 38.8231 36.6325 37.9142 37.3027 37.244C37.9728 36.5738 38.8818 36.1973 39.8296 36.1973C40.7773 36.1973 41.6863 36.5738 42.3565 37.244C43.0267 37.9142 43.4032 38.8231 43.4032 39.7709ZM52.1009 43.3455C53.0487 43.3455 53.9576 42.969 54.6278 42.2988C55.298 41.6286 55.6745 40.7197 55.6745 39.7719C55.6745 38.8241 55.298 37.9152 54.6278 37.245C53.9576 36.5748 53.0487 36.1983 52.1009 36.1983C51.1531 36.1983 50.2442 36.5748 49.574 37.245C48.9038 37.9152 48.5273 38.8241 48.5273 39.7719C48.5273 40.7197 48.9038 41.6286 49.574 42.2988C50.2442 42.969 51.1531 43.3455 52.1009 43.3455Z" fill="url(#paint1_linear_56_2542)"/>
<path d="M91.334 65.793C90.955 65.6976 90.5579 65.7021 90.1812 65.806C89.8046 65.91 89.4613 66.1099 89.185 66.3862C88.9087 66.6625 88.7088 67.0057 88.6049 67.3824C88.5009 67.759 88.4964 68.1562 88.5919 68.5351L96.319 99.1262C96.4168 99.5134 96.6155 99.8677 96.8948 100.153C97.1741 100.438 97.5241 100.645 97.909 100.751C98.294 100.857 98.7002 100.859 99.0862 100.757C99.4723 100.655 99.8244 100.452 100.107 100.17L105.97 94.3068C106.393 93.8834 106.968 93.6455 107.567 93.6455C108.165 93.6455 108.74 93.8834 109.163 94.3068L119.353 104.496C119.776 104.919 120.351 105.157 120.95 105.157C121.548 105.157 122.123 104.919 122.546 104.496L127.295 99.7476C127.718 99.324 127.956 98.7496 127.956 98.1507C127.956 97.5518 127.718 96.9774 127.295 96.5538L117.106 86.3646C116.682 85.9411 116.444 85.3666 116.444 84.7677C116.444 84.1688 116.682 83.5944 117.106 83.1708L122.969 77.3078C123.251 77.0254 123.454 76.6732 123.555 76.287C123.657 75.9008 123.655 75.4946 123.549 75.1096C123.443 74.7246 123.236 74.3746 122.95 74.0954C122.665 73.8162 122.31 73.6177 121.923 73.5202L91.3359 65.793H91.334Z" fill="url(#paint2_linear_56_2542)"/>
<path fill-rule="evenodd" clip-rule="evenodd" d="M51.0192 68.3386C47.3201 68.3386 43.7726 69.808 41.157 72.4236C38.5414 75.0392 37.072 78.5867 37.072 82.2857C37.072 85.9848 38.5414 89.5323 41.157 92.1479C43.7726 94.7635 47.3201 96.2329 51.0192 96.2329C54.7182 96.2329 58.2657 94.7635 60.8813 92.1479C63.4969 89.5323 64.9663 85.9848 64.9663 82.2857C64.9663 78.5867 63.4969 75.0392 60.8813 72.4236C58.2657 69.808 54.7182 68.3386 51.0192 68.3386ZM32.1875 82.2857C32.1875 77.2918 34.1713 72.5024 37.7026 68.9711C41.2338 65.4399 46.0232 63.4561 51.0172 63.4561C54.7413 63.4561 58.3819 64.5604 61.4784 66.6294C64.5749 68.6985 66.9884 71.6393 68.4135 75.0799C69.8387 78.5206 70.2116 82.3066 69.4851 85.9592C68.7585 89.6118 66.9652 92.967 64.3318 95.6003C61.6984 98.2337 58.3433 100.027 54.6907 100.754C51.0381 101.48 47.2521 101.107 43.8114 99.6821C40.3707 98.2569 37.4299 95.8435 35.3609 92.747C33.2918 89.6504 32.1875 86.0099 32.1875 82.2857Z" fill="white"/>
<path fill-rule="evenodd" clip-rule="evenodd" d="M51.0204 55.0312C52.3677 55.0312 53.4606 56.1241 53.4606 57.4735V107.099C53.4426 107.735 53.1774 108.338 52.7216 108.781C52.2657 109.224 51.6551 109.472 51.0194 109.472C50.3837 109.472 49.773 109.224 49.3172 108.781C48.8613 108.338 48.5962 107.735 48.5781 107.099V57.4735C48.5781 56.1241 49.671 55.0312 51.0184 55.0312H51.0204Z" fill="white"/>
<path fill-rule="evenodd" clip-rule="evenodd" d="M23.7676 82.285C23.7676 80.9357 24.8605 79.8428 26.2079 79.8428H75.8358C76.1622 79.8335 76.4872 79.8898 76.7915 80.0083C77.0958 80.1268 77.3732 80.3051 77.6074 80.5327C77.8415 80.7604 78.0277 81.0326 78.1548 81.3334C78.2819 81.6342 78.3474 81.9575 78.3474 82.284C78.3474 82.6106 78.2819 82.9338 78.1548 83.2346C78.0277 83.5354 77.8415 83.8077 77.6074 84.0353C77.3732 84.2629 77.0958 84.4413 76.7915 84.5598C76.4872 84.6783 76.1622 84.7346 75.8358 84.7253H26.2059C25.5588 84.7248 24.9385 84.4675 24.4809 84.01C24.0234 83.5524 23.7661 82.9321 23.7656 82.285H23.7676Z" fill="white"/>
<defs>
<linearGradient id="paint0_linear_56_2542" x1="16" y1="33.8665" x2="118.949" y2="108.878" gradientUnits="userSpaceOnUse">
<stop offset="0.065" stop-color="white" stop-opacity="0.8"/>
<stop offset="1" stop-color="white" stop-opacity="0.5"/>
</linearGradient>
<linearGradient id="paint1_linear_56_2542" x1="134.452" y1="49.5438" x2="18.8328" y2="42.6649" gradientUnits="userSpaceOnUse">
<stop stop-color="white"/>
<stop offset="1" stop-color="white" stop-opacity="0.39"/>
</linearGradient>
<linearGradient id="paint2_linear_56_2542" x1="101.961" y1="79.1622" x2="124.92" y2="102.121" gradientUnits="userSpaceOnUse">
<stop stop-color="white"/>
<stop offset="1" stop-color="white" stop-opacity="0.3"/>
</linearGradient>
</defs>
</svg>
