<svg width="150" height="150" viewBox="0 0 150 150" fill="none" xmlns="http://www.w3.org/2000/svg">
<path d="M17 62.1587C17 61.179 17.3892 60.2395 18.0819 59.5468C18.7747 58.854 19.7142 58.4648 20.6939 58.4648H36.3208C37.3005 58.4648 38.2401 58.854 38.9328 59.5468C39.6256 60.2395 40.0147 61.179 40.0147 62.1587V98.6026C40.0147 99.5822 39.6256 100.522 38.9328 101.215C38.2401 101.907 37.3005 102.296 36.3208 102.296H20.6957C19.716 102.296 18.7765 101.907 18.0838 101.215C17.391 100.522 17.0018 99.5822 17.0018 98.6026V62.1587H17Z" fill="url(#paint0_linear_56_2554)"/>
<path d="M48.2969 39.3697C48.2969 38.39 48.6861 37.4504 49.3788 36.7577C50.0715 36.065 51.0111 35.6758 51.9908 35.6758H67.6159C68.5956 35.6758 69.5351 36.065 70.2278 36.7577C70.9206 37.4504 71.3098 38.39 71.3098 39.3697V110.096C71.3098 111.076 70.9206 112.016 70.2278 112.708C69.5351 113.401 68.5956 113.79 67.6159 113.79H51.9908C51.0111 113.79 50.0715 113.401 49.3788 112.708C48.6861 112.016 48.2969 111.076 48.2969 110.096V39.3697Z" fill="url(#paint1_linear_56_2554)"/>
<path d="M79.5898 45.8785C79.5898 44.8988 79.979 43.9592 80.6718 43.2665C81.3645 42.5737 82.304 42.1846 83.2837 42.1846H98.9089C99.8885 42.1846 100.828 42.5737 101.521 43.2665C102.214 43.9592 102.603 44.8988 102.603 45.8785V95.3395C102.603 96.3192 102.214 97.2588 101.521 97.9515C100.828 98.6442 99.8885 99.0334 98.9089 99.0334H83.2837C82.304 99.0334 81.3645 98.6442 80.6718 97.9515C79.979 97.2588 79.5898 96.3192 79.5898 95.3395V45.8785Z" fill="url(#paint2_linear_56_2554)"/>
<path d="M110.883 59.3316C110.883 58.3519 111.272 57.4123 111.965 56.7196C112.657 56.0269 113.597 55.6377 114.577 55.6377H130.202C131.182 55.6377 132.121 56.0269 132.814 56.7196C133.507 57.4123 133.896 58.3519 133.896 59.3316V84.4906C133.896 85.4703 133.507 86.4098 132.814 87.1026C132.121 87.7953 131.182 88.1845 130.202 88.1845H114.577C113.597 88.1845 112.657 87.7953 111.965 87.1026C111.272 86.4098 110.883 85.4703 110.883 84.4906V59.3316Z" fill="url(#paint3_linear_56_2554)"/>
<path fill-rule="evenodd" clip-rule="evenodd" d="M28.5048 39.4141C29.2395 39.4141 29.9442 39.7059 30.4638 40.2255C30.9833 40.745 31.2752 41.4497 31.2752 42.1845V117.109C31.2752 117.844 30.9833 118.549 30.4638 119.068C29.9442 119.588 29.2395 119.88 28.5048 119.88C27.77 119.88 27.0654 119.588 26.5458 119.068C26.0263 118.549 25.7344 117.844 25.7344 117.109V42.1845C25.7344 41.4497 26.0263 40.745 26.5458 40.2255C27.0654 39.7059 27.77 39.4141 28.5048 39.4141Z" fill="url(#paint4_linear_56_2554)"/>
<path fill-rule="evenodd" clip-rule="evenodd" d="M122.395 105.067C121.661 105.067 120.956 104.776 120.436 104.256C119.917 103.737 119.625 103.032 119.625 102.297V69.7909C119.625 69.0562 119.917 68.3515 120.436 67.8319C120.956 67.3124 121.661 67.0205 122.395 67.0205C123.13 67.0205 123.835 67.3124 124.354 67.8319C124.874 68.3515 125.166 69.0562 125.166 69.7909V102.297C125.166 103.032 124.874 103.737 124.354 104.256C123.835 104.776 123.13 105.067 122.395 105.067Z" fill="url(#paint5_linear_56_2554)"/>
<path fill-rule="evenodd" clip-rule="evenodd" d="M59.8056 133.464C59.0708 133.464 58.3661 133.172 57.8466 132.652C57.327 132.133 57.0352 131.428 57.0352 130.693V18.7704C57.0352 18.4066 57.1068 18.0463 57.246 17.7102C57.3853 17.3741 57.5893 17.0687 57.8466 16.8114C58.1039 16.5542 58.4093 16.3501 58.7454 16.2109C59.0815 16.0717 59.4418 16 59.8056 16C60.1694 16 60.5296 16.0717 60.8658 16.2109C61.2019 16.3501 61.5073 16.5542 61.7645 16.8114C62.0218 17.0687 62.2259 17.3741 62.3651 17.7102C62.5043 18.0463 62.576 18.4066 62.576 18.7704V130.695C62.576 131.43 62.2841 132.134 61.7645 132.654C61.245 133.174 60.5403 133.465 59.8056 133.465V133.464Z" fill="url(#paint6_linear_56_2554)"/>
<path fill-rule="evenodd" clip-rule="evenodd" d="M91.0946 25.6826C91.8294 25.6826 92.5341 25.9745 93.0536 26.4941C93.5732 27.0136 93.865 27.7183 93.865 28.453V113.791C93.865 114.526 93.5732 115.23 93.0536 115.75C92.5341 116.269 91.8294 116.561 91.0946 116.561C90.3599 116.561 89.6552 116.269 89.1357 115.75C88.6161 115.23 88.3242 114.526 88.3242 113.791V28.453C88.3242 27.7183 88.6161 27.0136 89.1357 26.4941C89.6552 25.9745 90.3599 25.6826 91.0946 25.6826Z" fill="url(#paint7_linear_56_2554)"/>
<defs>
<linearGradient id="paint0_linear_56_2554" x1="28.5083" y1="58.4648" x2="28.5083" y2="102.296" gradientUnits="userSpaceOnUse">
<stop stop-color="#2960F7"/>
<stop offset="1" stop-color="#2960F7" stop-opacity="0.5"/>
</linearGradient>
<linearGradient id="paint1_linear_56_2554" x1="59.8033" y1="35.6758" x2="59.8033" y2="113.79" gradientUnits="userSpaceOnUse">
<stop stop-color="#2960F7" stop-opacity="0.8"/>
<stop offset="1" stop-color="white" stop-opacity="0.4"/>
</linearGradient>
<linearGradient id="paint2_linear_56_2554" x1="91.0981" y1="42.1846" x2="91.0981" y2="99.0353" gradientUnits="userSpaceOnUse">
<stop stop-color="#2960F7" stop-opacity="0.8"/>
<stop offset="1" stop-color="#2960F7" stop-opacity="0.5"/>
</linearGradient>
<linearGradient id="paint3_linear_56_2554" x1="122.391" y1="55.6377" x2="122.391" y2="88.1845" gradientUnits="userSpaceOnUse">
<stop stop-color="#2960F7" stop-opacity="0.8"/>
<stop offset="1" stop-color="#2960F7" stop-opacity="0.4"/>
</linearGradient>
<linearGradient id="paint4_linear_56_2554" x1="28.5066" y1="41.8668" x2="28.5066" y2="117.427" gradientUnits="userSpaceOnUse">
<stop stop-color="#2960F7"/>
<stop offset="1" stop-color="#2960F7" stop-opacity="0.43"/>
</linearGradient>
<linearGradient id="paint5_linear_56_2554" x1="122.395" y1="103.908" x2="122.395" y2="68.1804" gradientUnits="userSpaceOnUse">
<stop stop-color="#2960F7"/>
<stop offset="1" stop-color="#2960F7" stop-opacity="0.4"/>
</linearGradient>
<linearGradient id="paint6_linear_56_2554" x1="59.8056" y1="129.882" x2="59.8056" y2="19.5812" gradientUnits="userSpaceOnUse">
<stop stop-color="#2960F7"/>
<stop offset="1" stop-color="#2960F7" stop-opacity="0.4"/>
</linearGradient>
<linearGradient id="paint7_linear_56_2554" x1="91.0946" y1="28.453" x2="91.0946" y2="113.791" gradientUnits="userSpaceOnUse">
<stop stop-color="#2960F7"/>
<stop offset="1" stop-color="white" stop-opacity="0.4"/>
<stop offset="1" stop-color="#2960F7" stop-opacity="0.4"/>
</linearGradient>
</defs>
</svg>
