<svg width="150" height="150" viewBox="0 0 150 150" fill="none" xmlns="http://www.w3.org/2000/svg">
<path fill-rule="evenodd" clip-rule="evenodd" d="M106.035 35.5255C106.194 34.0597 105.828 32.7872 104.95 31.7725C103.148 29.6622 101.027 28.8247 98.2038 29.0986C91.9891 29.7261 84.3893 35.9816 80.24 42.0975H102.115C104.337 40.2312 105.796 37.8223 106.035 35.5255ZM52.8124 29.1147C59.0271 29.7422 66.611 35.9816 70.7761 42.0975H48.9011C46.6793 40.263 45.2198 37.8384 44.9813 35.5416C44.8218 34.0758 45.1887 32.8194 46.0659 31.7886C47.8681 29.6783 50.0213 28.8408 52.8124 29.1147ZM37.0546 36.3955C37.2613 38.3547 37.8645 40.2661 38.8008 42.0975H22.1898C20.4353 42.0975 19 43.5311 19 45.3191V66.2111C19 67.9831 20.4353 69.4327 22.1898 69.4327H30.005V125.762C30.005 127.534 31.4404 128.984 33.1948 128.984H67.358V129H83.6581V128.984H117.821C119.576 128.984 121.011 127.534 121.011 125.762V69.4327H128.81C130.565 69.4327 132 67.9831 132 66.2111V45.3191C132 43.5472 130.565 42.0975 128.81 42.0975H112.215C113.136 40.282 113.755 38.3547 113.962 36.3955C114.344 32.7228 113.292 29.2274 110.995 26.5213C107.502 22.4298 102.813 20.5451 97.4223 21.0928C89.2723 21.9143 80.9309 28.1964 75.508 35.0263C70.0695 28.2125 61.744 21.9143 53.5939 21.0928C48.219 20.5451 43.514 22.4298 40.0212 26.5213C37.7245 29.2274 36.6719 32.7389 37.0546 36.3955ZM103.315 71.4023C103.315 67.6068 100.261 64.53 96.4937 64.53C92.7261 64.53 89.6719 67.6068 89.6719 71.4023V114.96C89.6719 115.008 89.7112 115.048 89.7598 115.048H103.228C103.276 115.048 103.315 115.008 103.315 114.96V71.4023ZM83.191 82.8291C83.191 79.0336 80.1368 75.9568 76.3692 75.9568C72.6017 75.9568 69.5475 79.0336 69.5475 82.8291V114.987C69.5475 115.02 69.5743 115.047 69.6071 115.047H83.1314C83.1642 115.047 83.191 115.02 83.191 114.987V82.8291ZM56.2448 90.7503C60.0123 90.7503 63.0665 93.8271 63.0665 97.6226V115.02C63.0665 115.035 63.0544 115.047 63.0395 115.047H49.4501C49.4352 115.047 49.4231 115.035 49.4231 115.02V97.6226C49.4231 93.8271 52.4773 90.7503 56.2448 90.7503Z" fill="url(#paint0_linear_56_2587)"/>
<defs>
<linearGradient id="paint0_linear_56_2587" x1="46.7496" y1="24.4337" x2="147.479" y2="90.8291" gradientUnits="userSpaceOnUse">
<stop stop-color="#2960F7"/>
<stop offset="1" stop-color="#2960F7" stop-opacity="0.3"/>
</linearGradient>
</defs>
</svg>
