<svg width="262" height="39" viewBox="0 0 262 39" fill="none" xmlns="http://www.w3.org/2000/svg">
<path d="M0 0H9.89565V9.75H0V0Z" fill="white"/>
<path d="M0 9.75H9.89565V19.5H0V9.75Z" fill="white"/>
<path d="M19.7913 9.75H29.6869V19.5H19.7913V9.75Z" fill="white"/>
<path d="M39.5826 9.75H49.4782V19.5H39.5826V9.75Z" fill="white"/>
<path d="M29.6869 0H39.5826V9.75H29.6869V0Z" fill="white"/>
<path d="M9.89565 0H19.7913V9.75H9.89565V0Z" fill="white"/>
<path d="M0 19.5H9.89565V29.25H0V19.5Z" fill="white"/>
<path d="M19.7913 19.5H29.6869V29.25H19.7913V19.5Z" fill="white"/>
<path d="M39.5826 19.5H49.4782V29.25H39.5826V19.5Z" fill="white"/>
<path d="M0 29.25H9.89565V39H0V29.25Z" fill="white"/>
<path d="M19.7913 29.25H29.6869V39H19.7913V29.25Z" fill="white"/>
<path d="M39.5826 29.25H49.4782V39H39.5826V29.25Z" fill="white"/>
<path d="M39.5826 0H49.4782V9.75H39.5826V0Z" fill="white"/>
<path d="M68.0971 35.1V11.1503H73.1633V15.1112H73.3957C73.6436 14.4971 73.938 13.9137 74.2788 13.361C74.6507 12.8083 75.0845 12.3324 75.5803 11.9333C76.107 11.5034 76.7113 11.181 77.393 10.9661C78.1057 10.7204 78.9268 10.5976 79.8564 10.5976C81.4987 10.5976 82.955 10.9968 84.2255 11.7951C85.4959 12.5934 86.4255 13.8216 87.0142 15.4797H87.1537C87.5875 14.1286 88.4241 12.9772 89.6636 12.0254C90.903 11.0735 92.4988 10.5976 94.451 10.5976C96.8679 10.5976 98.7426 11.4113 100.075 13.0386C101.407 14.6353 102.074 16.9228 102.074 19.9011V35.1H97.0073V20.4999C97.0073 18.6576 96.651 17.2759 95.9383 16.3547C95.2256 15.4029 94.0946 14.927 92.5453 14.927C91.8946 14.927 91.2749 15.0191 90.6861 15.2033C90.0974 15.3568 89.5706 15.6025 89.1058 15.9402C88.672 16.278 88.3157 16.7078 88.0368 17.2298C87.7579 17.7518 87.6185 18.3506 87.6185 19.0261V35.1H82.5522V20.4999C82.5522 16.7846 81.0803 14.927 78.1366 14.927C77.5169 14.927 76.8972 15.0191 76.2775 15.2033C75.6887 15.3568 75.1619 15.6025 74.6972 15.9402C74.2324 16.278 73.8605 16.7078 73.5816 17.2298C73.3028 17.7518 73.1633 18.3506 73.1633 19.0261V35.1H68.0971Z" fill="white"/>
<path d="M118.566 35.6527C116.893 35.6527 115.359 35.361 113.965 34.7776C112.601 34.1942 111.439 33.3652 110.479 32.2905C109.518 31.1851 108.775 29.8648 108.248 28.3296C107.721 26.7637 107.458 25.0288 107.458 23.1251C107.458 21.2214 107.721 19.502 108.248 17.9667C108.775 16.4008 109.518 15.0805 110.479 14.0058C111.439 12.9005 112.601 12.0561 113.965 11.4727C115.359 10.8893 116.893 10.5976 118.566 10.5976C120.24 10.5976 121.758 10.8893 123.121 11.4727C124.516 12.0561 125.693 12.9005 126.654 14.0058C127.614 15.0805 128.358 16.4008 128.885 17.9667C129.411 19.502 129.675 21.2214 129.675 23.1251C129.675 25.0288 129.411 26.7637 128.885 28.3296C128.358 29.8648 127.614 31.1851 126.654 32.2905C125.693 33.3652 124.516 34.1942 123.121 34.7776C121.758 35.361 120.24 35.6527 118.566 35.6527ZM118.566 31.5075C120.301 31.5075 121.696 30.9856 122.749 29.9416C123.803 28.8669 124.33 27.2703 124.33 25.1517V21.0986C124.33 18.98 123.803 17.3987 122.749 16.3547C121.696 15.2801 120.301 14.7427 118.566 14.7427C116.831 14.7427 115.437 15.2801 114.383 16.3547C113.33 17.3987 112.803 18.98 112.803 21.0986V25.1517C112.803 27.2703 113.33 28.8669 114.383 29.9416C115.437 30.9856 116.831 31.5075 118.566 31.5075Z" fill="white"/>
<path d="M141.877 35.1C140.111 35.1 138.778 34.6548 137.88 33.7643C136.981 32.8432 136.532 31.5536 136.532 29.8955V15.2494H132.767V11.1503H134.812C135.649 11.1503 136.222 10.9661 136.532 10.5976C136.873 10.2291 137.043 9.6304 137.043 8.80137V4.61017H141.598V11.1503H146.664V15.2494H141.598V31.0009H146.292V35.1H141.877Z" fill="white"/>
<path d="M158.535 35.1C156.769 35.1 155.436 34.6548 154.538 33.7643C153.639 32.8432 153.19 31.5536 153.19 29.8955V15.2494H149.425V11.1503H151.47C152.307 11.1503 152.88 10.9661 153.19 10.5976C153.531 10.2291 153.701 9.6304 153.701 8.80137V4.61017H158.256V11.1503H163.322V15.2494H158.256V31.0009H162.951V35.1H158.535Z" fill="white"/>
<path d="M171.374 6.86697C170.321 6.86697 169.546 6.62133 169.05 6.13005C168.586 5.63878 168.353 5.00933 168.353 4.24171V3.45874C168.353 2.69112 168.586 2.06167 169.05 1.5704C169.546 1.07912 170.321 0.833482 171.374 0.833482C172.428 0.833482 173.187 1.07912 173.652 1.5704C174.117 2.06167 174.349 2.69112 174.349 3.45874V4.24171C174.349 5.00933 174.117 5.63878 173.652 6.13005C173.187 6.62133 172.428 6.86697 171.374 6.86697ZM168.818 11.1503H173.884V35.1H168.818V11.1503Z" fill="white"/>
<path d="M178.469 11.5187H181.258L188.555 32.2905H188.741L195.992 11.5187H198.688L190.089 35.1H187.068L178.469 11.5187Z" fill="white"/>
<path d="M219.873 35.1C218.851 35.1 218.107 34.839 217.642 34.317C217.177 33.795 216.914 33.0888 216.852 32.1984V31.3694H216.62C216.093 32.6897 215.225 33.7336 214.017 34.5013C212.808 35.2689 211.274 35.6527 209.415 35.6527C206.905 35.6527 204.969 35.0539 203.605 33.8565C202.242 32.6283 201.56 30.9088 201.56 28.6981C201.56 26.6101 202.304 24.9521 203.791 23.7239C205.31 22.4957 207.788 21.8816 211.228 21.8816H216.713V19.1182C216.713 15.2187 214.683 13.2689 210.624 13.2689C209.043 13.2689 207.727 13.6067 206.673 14.2822C205.619 14.927 204.767 15.8635 204.117 17.0917L202.443 15.7099C203.094 14.3282 204.086 13.1922 205.418 12.3017C206.781 11.4113 208.548 10.9661 210.717 10.9661C213.505 10.9661 215.644 11.6569 217.131 13.0386C218.618 14.4203 219.362 16.3547 219.362 18.8418V32.7971H222.569V35.1H219.873ZM209.787 33.3959C210.748 33.3959 211.646 33.2731 212.483 33.0274C213.32 32.7818 214.048 32.444 214.667 32.0142C215.318 31.5536 215.814 31.0163 216.155 30.4022C216.527 29.7574 216.713 29.0358 216.713 28.2375V23.8621H211.135C208.749 23.8621 207.014 24.2459 205.929 25.0135C204.876 25.7504 204.349 26.779 204.349 28.0993V29.2047C204.349 30.5864 204.845 31.6304 205.836 32.3366C206.828 33.0428 208.145 33.3959 209.787 33.3959Z" fill="white"/>
<path d="M232.204 35.1C231.243 35.1 230.515 34.839 230.02 34.317C229.524 33.795 229.276 33.0888 229.276 32.1984V13.8216H225.139V11.5187H227.835C228.486 11.5187 228.919 11.3959 229.136 11.1503C229.384 10.8739 229.508 10.398 229.508 9.72251V4.93257H231.925V11.5187H237.317V13.8216H231.925V32.7971H236.945V35.1H232.204Z" fill="white"/>
<path d="M252.007 35.6527C250.427 35.6527 248.986 35.3763 247.684 34.8237C246.414 34.271 245.314 33.4727 244.384 32.4287C243.486 31.354 242.788 30.0491 242.293 28.5138C241.828 26.9786 241.595 25.2438 241.595 23.3094C241.595 21.375 241.828 19.6555 242.293 18.151C242.788 16.6157 243.486 15.3261 244.384 14.2822C245.314 13.2075 246.414 12.3938 247.684 11.8411C248.955 11.2577 250.38 10.9661 251.96 10.9661C253.479 10.9661 254.858 11.2577 256.097 11.8411C257.337 12.3938 258.39 13.1768 259.258 14.1901C260.125 15.2033 260.792 16.4315 261.256 17.8746C261.752 19.287 262 20.853 262 22.5725V23.816H244.384V24.9674C244.384 26.1956 244.555 27.3317 244.896 28.3757C245.267 29.3889 245.779 30.264 246.429 31.0009C247.111 31.7378 247.932 32.3212 248.893 32.7511C249.853 33.1502 250.938 33.3498 252.146 33.3498C255.617 33.3498 258.018 31.7685 259.351 28.6059L261.303 29.8955C260.559 31.6457 259.382 33.0428 257.77 34.0867C256.19 35.1307 254.269 35.6527 252.007 35.6527ZM251.96 13.1768C250.814 13.1768 249.776 13.3917 248.846 13.8216C247.917 14.2208 247.111 14.7888 246.429 15.5257C245.779 16.2626 245.267 17.1531 244.896 18.197C244.555 19.2103 244.384 20.331 244.384 21.5592V21.7895H259.118V21.421C259.118 20.1928 258.948 19.0721 258.607 18.0589C258.266 17.0149 257.77 16.1398 257.12 15.4336C256.5 14.7274 255.741 14.1747 254.842 13.7755C253.975 13.3764 253.014 13.1768 251.96 13.1768Z" fill="white"/>
</svg>
