<svg width="102" height="15" viewBox="0 0 102 15" fill="none" xmlns="http://www.w3.org/2000/svg">
<path d="M0 0H3.8525V3.75H0V0Z" fill="#0D0D17"/>
<path d="M0 3.75H3.8525V7.5H0V3.75Z" fill="#0D0D17"/>
<path d="M7.70501 3.75H11.5575V7.5H7.70501V3.75Z" fill="#0D0D17"/>
<path d="M15.41 3.75H19.2625V7.5H15.41V3.75Z" fill="#0D0D17"/>
<path d="M11.5575 0H15.41V3.75H11.5575V0Z" fill="#0D0D17"/>
<path d="M3.8525 0H7.70501V3.75H3.8525V0Z" fill="#0D0D17"/>
<path d="M0 7.5H3.8525V11.25H0V7.5Z" fill="#0D0D17"/>
<path d="M7.70501 7.5H11.5575V11.25H7.70501V7.5Z" fill="#0D0D17"/>
<path d="M15.41 7.5H19.2625V11.25H15.41V7.5Z" fill="#0D0D17"/>
<path d="M0 11.25H3.8525V15H0V11.25Z" fill="#0D0D17"/>
<path d="M7.70501 11.25H11.5575V15H7.70501V11.25Z" fill="#0D0D17"/>
<path d="M15.41 11.25H19.2625V15H15.41V11.25Z" fill="#0D0D17"/>
<path d="M15.41 0H19.2625V3.75H15.41V0Z" fill="#0D0D17"/>
<path d="M26.5111 13.5V4.28857H28.4834V5.812H28.5739C28.6704 5.57581 28.785 5.35143 28.9177 5.13886C29.0625 4.92628 29.2314 4.74324 29.4244 4.58971C29.6295 4.42438 29.8647 4.30038 30.1301 4.21771C30.4075 4.12324 30.7272 4.076 31.0891 4.076C31.7285 4.076 32.2955 4.22952 32.7901 4.53657C33.2847 4.84362 33.6466 5.316 33.8758 5.95371H33.9301C34.0989 5.43409 34.4247 4.99124 34.9072 4.62514C35.3897 4.25905 36.011 4.076 36.771 4.076C37.7119 4.076 38.4418 4.38895 38.9605 5.01486C39.4792 5.62895 39.7386 6.50876 39.7386 7.65428V13.5H37.7662V7.88457C37.7662 7.176 37.6275 6.64457 37.35 6.29029C37.0726 5.92419 36.6323 5.74114 36.0291 5.74114C35.7758 5.74114 35.5345 5.77657 35.3053 5.84743C35.0761 5.90648 34.871 6.00095 34.6901 6.13086C34.5212 6.26076 34.3824 6.42609 34.2739 6.62686C34.1653 6.82762 34.111 7.0579 34.111 7.31771V13.5H32.1386V7.88457C32.1386 6.45562 31.5656 5.74114 30.4196 5.74114C30.1783 5.74114 29.9371 5.77657 29.6958 5.84743C29.4666 5.90648 29.2615 6.00095 29.0806 6.13086C28.8996 6.26076 28.7549 6.42609 28.6463 6.62686C28.5377 6.82762 28.4834 7.0579 28.4834 7.31771V13.5H26.5111Z" fill="#0D0D17"/>
<path d="M46.1594 13.7126C45.508 13.7126 44.9108 13.6004 44.368 13.376C43.8372 13.1516 43.3848 12.8328 43.0108 12.4194C42.6369 11.9943 42.3473 11.4865 42.1423 10.896C41.9372 10.2937 41.8346 9.62648 41.8346 8.89428C41.8346 8.16209 41.9372 7.50076 42.1423 6.91028C42.3473 6.308 42.6369 5.80019 43.0108 5.38686C43.3848 4.96171 43.8372 4.63695 44.368 4.41257C44.9108 4.18819 45.508 4.076 46.1594 4.076C46.8108 4.076 47.4019 4.18819 47.9327 4.41257C48.4756 4.63695 48.934 4.96171 49.3079 5.38686C49.6819 5.80019 49.9714 6.308 50.1765 6.91028C50.3816 7.50076 50.4841 8.16209 50.4841 8.89428C50.4841 9.62648 50.3816 10.2937 50.1765 10.896C49.9714 11.4865 49.6819 11.9943 49.3079 12.4194C48.934 12.8328 48.4756 13.1516 47.9327 13.376C47.4019 13.6004 46.8108 13.7126 46.1594 13.7126ZM46.1594 12.1183C46.8349 12.1183 47.3778 11.9175 47.7879 11.516C48.1981 11.1027 48.4032 10.4886 48.4032 9.67371V8.11486C48.4032 7.3 48.1981 6.69181 47.7879 6.29029C47.3778 5.87695 46.8349 5.67028 46.1594 5.67028C45.4838 5.67028 44.941 5.87695 44.5308 6.29029C44.1207 6.69181 43.9156 7.3 43.9156 8.11486V9.67371C43.9156 10.4886 44.1207 11.1027 44.5308 11.516C44.941 11.9175 45.4838 12.1183 46.1594 12.1183Z" fill="#0D0D17"/>
<path d="M55.2345 13.5C54.5469 13.5 54.0282 13.3288 53.6783 12.9863C53.3285 12.632 53.1536 12.136 53.1536 11.4983V5.86514H51.6879V4.28857H52.484C52.8097 4.28857 53.0329 4.21771 53.1536 4.076C53.2863 3.93428 53.3526 3.704 53.3526 3.38514V1.77314H55.1259V4.28857H57.0983V5.86514H55.1259V11.9234H56.9535V13.5H55.2345Z" fill="#0D0D17"/>
<path d="M61.7197 13.5C61.0321 13.5 60.5134 13.3288 60.1636 12.9863C59.8137 12.632 59.6388 12.136 59.6388 11.4983V5.86514H58.1731V4.28857H58.9693C59.295 4.28857 59.5182 4.21771 59.6388 4.076C59.7715 3.93428 59.8379 3.704 59.8379 3.38514V1.77314H61.6112V4.28857H63.5835V5.86514H61.6112V11.9234H63.4388V13.5H61.7197Z" fill="#0D0D17"/>
<path d="M66.7182 2.64114C66.3081 2.64114 66.0065 2.54667 65.8135 2.35771C65.6325 2.16876 65.5421 1.92667 65.5421 1.63143V1.33028C65.5421 1.03505 65.6325 0.792951 65.8135 0.603998C66.0065 0.415046 66.3081 0.32057 66.7182 0.32057C67.1284 0.32057 67.4239 0.415046 67.6049 0.603998C67.7859 0.792951 67.8763 1.03505 67.8763 1.33028V1.63143C67.8763 1.92667 67.7859 2.16876 67.6049 2.35771C67.4239 2.54667 67.1284 2.64114 66.7182 2.64114ZM65.723 4.28857H67.6954V13.5H65.723V4.28857Z" fill="#0D0D17"/>
<path d="M69.4804 4.43028H70.5661L73.4071 12.4194H73.4794L76.3023 4.43028H77.3518L74.0042 13.5H72.828L69.4804 4.43028Z" fill="#0D0D17"/>
<path d="M85.5995 13.5C85.2014 13.5 84.9119 13.3996 84.7309 13.1989C84.55 12.9981 84.4474 12.7265 84.4233 12.384V12.0651H84.3328C84.1277 12.573 83.79 12.9745 83.3195 13.2697C82.849 13.565 82.2519 13.7126 81.5281 13.7126C80.5509 13.7126 79.797 13.4823 79.2662 13.0217C78.7354 12.5493 78.47 11.888 78.47 11.0377C78.47 10.2347 78.7595 9.59695 79.3386 9.12457C79.9297 8.65219 80.8948 8.416 82.2338 8.416H84.369V7.35314C84.369 5.85333 83.5789 5.10343 81.9986 5.10343C81.3833 5.10343 80.8706 5.23333 80.4605 5.49314C80.0503 5.74114 79.7186 6.10133 79.4652 6.57371L78.8138 6.04228C79.0671 5.51086 79.4532 5.0739 79.9719 4.73143C80.5027 4.38895 81.1903 4.21771 82.0347 4.21771C83.1205 4.21771 83.9528 4.48343 84.5319 5.01486C85.1109 5.54628 85.4004 6.29028 85.4004 7.24686V12.6143H86.649V13.5H85.5995ZM81.6728 12.8446C82.0468 12.8446 82.3967 12.7973 82.7224 12.7029C83.0481 12.6084 83.3316 12.4785 83.5728 12.3131C83.8262 12.136 84.0192 11.9293 84.1519 11.6931C84.2966 11.4451 84.369 11.1676 84.369 10.8606V9.17771H82.1976C81.2687 9.17771 80.5932 9.32533 80.171 9.62057C79.7608 9.904 79.5557 10.2996 79.5557 10.8074V11.2326C79.5557 11.764 79.7487 12.1655 80.1348 12.4371C80.5208 12.7088 81.0335 12.8446 81.6728 12.8446Z" fill="#0D0D17"/>
<path d="M90.4001 13.5C90.0261 13.5 89.7426 13.3996 89.5496 13.1989C89.3566 12.9981 89.2601 12.7265 89.2601 12.384V5.316H87.6496V4.43028H88.6991C88.9524 4.43028 89.1213 4.38305 89.2058 4.28857C89.3023 4.18228 89.3505 3.99924 89.3505 3.73943V1.89714H90.2915V4.43028H92.3905V5.316H90.2915V12.6143H92.2458V13.5H90.4001Z" fill="#0D0D17"/>
<path d="M98.1096 13.7126C97.4943 13.7126 96.9334 13.6063 96.4267 13.3937C95.9321 13.1811 95.5039 12.8741 95.142 12.4726C94.7921 12.0592 94.5207 11.5573 94.3277 10.9669C94.1467 10.3764 94.0563 9.70914 94.0563 8.96514C94.0563 8.22114 94.1467 7.55981 94.3277 6.98114C94.5207 6.39067 94.7921 5.89467 95.142 5.49314C95.5039 5.07981 95.9321 4.76686 96.4267 4.55429C96.9213 4.3299 97.4762 4.21771 98.0915 4.21771C98.6826 4.21771 99.2194 4.3299 99.7019 4.55429C100.184 4.76686 100.595 5.068 100.932 5.45771C101.27 5.84743 101.53 6.31981 101.71 6.87486C101.903 7.41809 102 8.02038 102 8.68171V9.16H95.142V9.60286C95.142 10.0752 95.2083 10.5122 95.341 10.9137C95.4858 11.3034 95.6848 11.64 95.9381 11.9234C96.2035 12.2069 96.5232 12.4312 96.8972 12.5966C97.2711 12.7501 97.6934 12.8269 98.1638 12.8269C99.5149 12.8269 100.45 12.2187 100.969 11.0023L101.729 11.4983C101.439 12.1714 100.981 12.7088 100.353 13.1103C99.7381 13.5118 98.9902 13.7126 98.1096 13.7126ZM98.0915 5.068C97.6451 5.068 97.241 5.15067 96.8791 5.316C96.5172 5.46952 96.2035 5.688 95.9381 5.97143C95.6848 6.25486 95.4858 6.59733 95.341 6.99886C95.2083 7.38857 95.142 7.81962 95.142 8.292V8.38057H100.878V8.23886C100.878 7.76648 100.812 7.33543 100.679 6.94571C100.546 6.54419 100.353 6.20762 100.1 5.936C99.8587 5.66438 99.5632 5.45181 99.2134 5.29828C98.8756 5.14476 98.5016 5.068 98.0915 5.068Z" fill="#0D0D17"/>
</svg>
