<svg width="28" height="23" viewBox="0 0 28 23" fill="none" xmlns="http://www.w3.org/2000/svg">
<path d="M0 0H5.6V5.75H0V0Z" fill="white"/>
<path d="M0 5.75H5.6V11.5H0V5.75Z" fill="white"/>
<path d="M11.2 5.75H16.8V11.5H11.2V5.75Z" fill="white"/>
<path d="M22.4 5.75H28V11.5H22.4V5.75Z" fill="white"/>
<path d="M16.8 0H22.4V5.75H16.8V0Z" fill="white"/>
<path d="M5.6 0H11.2V5.75H5.6V0Z" fill="white"/>
<path d="M0 11.5H5.6V17.25H0V11.5Z" fill="white"/>
<path d="M11.2 11.5H16.8V17.25H11.2V11.5Z" fill="white"/>
<path d="M22.4 11.5H28V17.25H22.4V11.5Z" fill="white"/>
<path d="M0 17.25H5.6V23H0V17.25Z" fill="white"/>
<path d="M11.2 17.25H16.8V23H11.2V17.25Z" fill="white"/>
<path d="M22.4 17.25H28V23H22.4V17.25Z" fill="white"/>
<path d="M22.4 0H28V5.75H22.4V0Z" fill="white"/>
</svg>
