<svg width="40" height="11" viewBox="0 0 40 11" fill="none" xmlns="http://www.w3.org/2000/svg">
<path d="M4.63949 8.18457C5.66943 8.03847 6.50143 7.10765 6.63284 5.95446C6.67872 5.56086 6.64317 5.16074 6.52892 4.78495C6.41467 4.40916 6.22478 4.06776 5.97391 3.78709C5.72303 3.50642 5.41788 3.29398 5.08199 3.16616C4.74609 3.03834 4.38844 2.99856 4.03663 3.04989C3.00587 3.19691 2.17387 4.12773 2.04327 5.28001C1.99739 5.6736 2.03295 6.07373 2.1472 6.44952C2.26144 6.82531 2.45133 7.16671 2.70221 7.44738C2.95308 7.72805 3.25824 7.94049 3.59413 8.06831C3.93002 8.19613 4.28767 8.2359 4.63949 8.18457ZM4.77993 0.789458C5.77152 0.906243 6.69722 1.40033 7.40225 2.1891C8.10729 2.97787 8.54892 4.01352 8.6533 5.12288C8.92516 8.19192 6.63859 10.7501 3.89454 10.4459C2.9031 10.3289 1.97759 9.83477 1.27272 9.04602C0.567857 8.25727 0.126345 7.22173 0.0219918 6.11251C-0.249867 3.04346 2.0367 0.48531 4.77993 0.789458ZM10.9809 0.981503H17.3306C17.5721 0.981503 17.7084 1.29025 17.563 1.50526L13.1698 7.98977H16.6119C17.2394 7.98977 17.7331 8.62839 17.6033 9.35614C17.508 9.89001 17.0604 10.2539 16.5742 10.2539H9.67832C9.43931 10.2539 9.30379 9.9479 9.44753 9.73564L13.8441 3.24561H11.0187C10.5325 3.24561 10.0849 2.88082 9.9896 2.34787C9.85901 1.62012 10.3534 0.981503 10.9809 0.981503ZM38.5372 1.00723C39.1927 0.852861 39.7692 1.40786 39.7692 2.11356V9.92676C39.7692 10.1997 39.4875 10.3513 39.297 10.1822L33.8195 5.32044V9.12366C33.8195 9.82936 33.243 10.3844 32.5876 10.23C32.1178 10.1197 31.7958 9.62996 31.7958 9.09334V1.3077C31.7958 1.0348 32.0775 0.883183 32.2681 1.05226L37.7463 5.91403V2.14388C37.7463 1.60726 38.0691 1.11842 38.5381 1.00723H38.5372ZM24.2749 0.764648C27.6284 0.764648 30.347 2.93687 30.347 5.61631C30.347 8.29576 27.6284 10.468 24.2749 10.468C20.9214 10.468 18.2029 8.29576 18.2029 5.61631C18.2029 2.93687 20.9214 0.764648 24.2749 0.764648ZM24.2749 3.02876C21.958 3.02876 20.2266 4.39513 20.2266 5.61631C20.2266 6.8375 21.958 8.20387 24.2749 8.20387C26.5919 8.20387 28.3232 6.83842 28.3232 5.61631C28.3232 4.39421 26.5919 3.02876 24.2749 3.02876Z" fill="#005BFF"/>
</svg>
