<svg width="88" height="20" viewBox="0 0 88 20" fill="none" xmlns="http://www.w3.org/2000/svg">
<path d="M10.2661 15.2895C12.5451 14.9885 14.3861 13.0704 14.6769 10.6942C14.7785 9.88311 14.6998 9.0586 14.447 8.28425C14.1942 7.5099 13.774 6.80641 13.2189 6.22806C12.6637 5.6497 11.9885 5.21195 11.2452 4.94857C10.502 4.68518 9.7106 4.60322 8.93212 4.70899C6.65128 5.01194 4.81025 6.93 4.52129 9.30437C4.41976 10.1154 4.49844 10.9399 4.75124 11.7143C5.00405 12.4886 5.42422 13.1921 5.97935 13.7705C6.53448 14.3488 7.20972 14.7866 7.95297 15.05C8.69622 15.3133 9.48762 15.3953 10.2661 15.2895ZM10.5769 0.0511229C12.771 0.29177 14.8194 1.30988 16.3795 2.93523C17.9395 4.56058 18.9168 6.69464 19.1477 8.98059C19.7493 15.3047 14.6897 20.576 8.61771 19.9493C6.42388 19.7082 4.37595 18.69 2.81624 17.0646C1.25653 15.4393 0.279571 13.3055 0.0486627 11.0198C-0.552897 4.69573 4.50675 -0.575606 10.5769 0.0511229ZM24.2983 0.446852H38.3486C38.8829 0.446852 39.1846 1.08305 38.8629 1.52611L29.1416 14.8881H36.7584C38.1469 14.8881 39.2391 16.2041 38.952 17.7037C38.7411 18.8038 37.7507 19.5536 36.6748 19.5536H21.4159C20.887 19.5536 20.5871 18.9231 20.9052 18.4857L30.6337 5.11229H24.3819C23.306 5.11229 22.3155 4.3606 22.1046 3.2624C21.8157 1.76279 22.9098 0.446852 24.2983 0.446852ZM85.2739 0.499869C86.7242 0.18177 88 1.32541 88 2.77957V18.8795C88 19.4419 87.3766 19.7543 86.955 19.4059L74.8347 9.38768V17.2246C74.8347 18.6788 73.5589 19.8224 72.1086 19.5043C71.0691 19.2771 70.3567 18.2679 70.3567 17.1622V1.11902C70.3567 0.556672 70.98 0.244254 71.4017 0.592647L83.5237 10.6108V2.84206C83.5237 1.73629 84.238 0.728975 85.2757 0.499869H85.2739ZM53.7147 0C61.1352 0 67.1508 4.4761 67.1508 9.99737C67.1508 15.5186 61.1352 19.9947 53.7147 19.9947C46.2943 19.9947 40.2787 15.5186 40.2787 9.99737C40.2787 4.4761 46.2943 0 53.7147 0ZM53.7147 4.66544C48.5878 4.66544 44.7567 7.48099 44.7567 9.99737C44.7567 12.5138 48.5878 15.3293 53.7147 15.3293C58.8416 15.3293 62.6727 12.5156 62.6727 9.99737C62.6727 7.47909 58.8416 4.66544 53.7147 4.66544Z" fill="white"/>
</svg>
