<svg width="150" height="150" viewBox="0 0 150 150" fill="none" xmlns="http://www.w3.org/2000/svg">
<path fill-rule="evenodd" clip-rule="evenodd" d="M116.477 45.8594H42.2371C39.9882 45.8594 38.1693 47.6822 38.1693 49.9331V107.695H19.9966C18.3395 107.695 17 106.327 17 104.692V28.9985C17 27.3395 18.3375 26 19.9985 26H113.48C115.137 26 116.479 27.3375 116.479 28.9985V45.8594H116.477Z" fill="url(#paint0_linear_56_2578)"/>
<path fill-rule="evenodd" clip-rule="evenodd" d="M42.2396 45.8594H129.326C130.401 45.8583 131.434 46.2838 132.196 47.0427C132.959 47.8015 133.389 48.8317 133.393 49.9074V120.588C133.394 121.123 133.289 121.652 133.085 122.146C132.881 122.641 132.581 123.09 132.204 123.468C131.826 123.846 131.377 124.146 130.883 124.351C130.39 124.556 129.86 124.662 129.326 124.662H42.2396C41.7049 124.662 41.1754 124.556 40.6815 124.351C40.1875 124.146 39.7389 123.846 39.3611 123.467C38.9833 123.089 38.6838 122.639 38.4798 122.145C38.2757 121.651 38.1711 121.121 38.1719 120.586V49.935C38.1719 47.6841 39.9907 45.8613 42.2396 45.8613V45.8594ZM72.5684 69.1711C71.0228 69.1711 69.5406 69.7851 68.4477 70.8779C67.3549 71.9708 66.7409 73.453 66.7409 74.9985V98.8311C66.7409 98.8606 66.7646 98.8843 66.7922 98.8843H78.3445C78.3581 98.8843 78.3711 98.8789 78.3808 98.8693C78.3904 98.8597 78.3958 98.8466 78.3958 98.833V74.9966C78.3958 73.451 77.7818 71.9688 76.689 70.8759C75.5961 69.7831 74.1139 69.1691 72.5684 69.1691V69.1711ZM83.9332 81.7176C83.9332 80.1718 84.5473 78.6894 85.6403 77.5963C86.7334 76.5033 88.2159 75.8892 89.7617 75.8892C91.3074 75.8892 92.7899 76.5033 93.883 77.5963C94.976 78.6894 95.5901 80.1718 95.5901 81.7176V98.8488C95.5901 98.8685 95.5743 98.8824 95.5546 98.8824H83.9687C83.9597 98.8824 83.9509 98.8789 83.9443 98.8727C83.9377 98.8664 83.9337 98.8579 83.9332 98.8488V81.7196V81.7176ZM106.955 84.5919C106.189 84.5916 105.431 84.7423 104.724 85.0351C104.016 85.328 103.374 85.7574 102.832 86.2987C102.291 86.8401 101.862 87.4828 101.569 88.1902C101.276 88.8976 101.125 89.6557 101.126 90.4213V98.8685C101.126 98.8764 101.133 98.8843 101.141 98.8843H112.765C112.767 98.8846 112.769 98.8844 112.771 98.8837C112.773 98.8831 112.775 98.882 112.777 98.8805C112.779 98.879 112.78 98.8771 112.781 98.8751C112.782 98.873 112.782 98.8708 112.782 98.8685V90.4213C112.783 89.6557 112.632 88.8976 112.339 88.1902C112.046 87.4828 111.617 86.8401 111.076 86.2987C110.534 85.7574 109.891 85.328 109.184 85.0351C108.477 84.7423 107.719 84.5916 106.953 84.5919H106.955Z" fill="url(#paint1_linear_56_2578)"/>
<path fill-rule="evenodd" clip-rule="evenodd" d="M55.2267 60.4502C56.0115 60.4502 56.7641 60.762 57.3191 61.3169C57.874 61.8718 58.1858 62.6245 58.1858 63.4093V106.845H116.338C117.123 106.845 117.875 107.157 118.43 107.711C118.985 108.266 119.297 109.019 119.297 109.804C119.297 110.589 118.985 111.341 118.43 111.896C117.875 112.451 117.123 112.763 116.338 112.763H55.2247C54.4399 112.763 53.6873 112.451 53.1323 111.896C52.5774 111.341 52.2656 110.589 52.2656 109.804V63.4093C52.2656 62.6245 52.5774 61.8718 53.1323 61.3169C53.6873 60.762 54.4399 60.4502 55.2247 60.4502H55.2267Z" fill="url(#paint2_linear_56_2578)"/>
<defs>
<linearGradient id="paint0_linear_56_2578" x1="12.7231" y1="35.6092" x2="120.829" y2="97.9296" gradientUnits="userSpaceOnUse">
<stop stop-color="white" stop-opacity="0.5"/>
<stop offset="1" stop-color="white"/>
</linearGradient>
<linearGradient id="paint1_linear_56_2578" x1="43.7429" y1="124.662" x2="133.393" y2="45.8594" gradientUnits="userSpaceOnUse">
<stop stop-color="white"/>
<stop offset="1" stop-color="white" stop-opacity="0.4"/>
</linearGradient>
<linearGradient id="paint2_linear_56_2578" x1="104.947" y1="66.325" x2="60.2276" y2="101.006" gradientUnits="userSpaceOnUse">
<stop stop-color="white" stop-opacity="0.5"/>
<stop offset="1" stop-color="white"/>
</linearGradient>
</defs>
</svg>
