<svg width="65" height="9" viewBox="0 0 65 9" fill="none" xmlns="http://www.w3.org/2000/svg">
<path d="M1.96294 8.32318L0 0.666016H1.28685L2.79552 6.54772L4.41207 0.666016H5.61232L7.23494 6.57786L8.74968 0.667599L10.0365 0.666016L8.07359 8.32159L6.58011 8.32L5.01219 2.60172L3.44275 8.32159L1.96294 8.32318Z" fill="#AD1480"/>
<path d="M10.9258 0.67041H12.1519V8.31805H10.9258V0.67041Z" fill="#AD1480"/>
<path d="M14.7706 7.11855H17.756V8.31805H13.5703V0.67041H14.7706V7.11855Z" fill="#AD1480"/>
<path d="M21.5227 0.670534C22.5285 0.670534 23.3657 1.04974 24.025 1.78119C24.6935 2.51263 25.0308 3.42178 25.0308 4.49753C25.0308 5.56534 24.692 6.4729 24.025 7.21387C23.3657 7.94531 22.5285 8.31659 21.5227 8.31659H18.6406V0.668945H21.5227V0.670534ZM21.5227 7.12661C22.2156 7.12661 22.7823 6.87909 23.2046 6.38564C23.6437 5.89219 23.864 5.25595 23.864 4.50705C23.864 3.73911 23.6437 3.1219 23.2046 2.62846C22.7731 2.13501 22.208 1.88749 21.5227 1.88749H19.8485V7.12661H21.5227Z" fill="#AD1480"/>
<path d="M31.502 6.13324C31.502 6.75996 31.2909 7.28039 30.8594 7.69609C30.4279 8.1102 29.9204 8.32281 29.296 8.32281H26.1602V0.67041H29.0681C29.6682 0.67041 30.1757 0.88302 30.5905 1.27968C31.0128 1.68586 31.2164 2.18883 31.2164 2.78859C31.2164 3.45974 30.9627 3.97064 30.4719 4.35143C31.1131 4.70367 31.502 5.33833 31.502 6.13324ZM27.368 1.85246V3.86433H29.0757C29.6075 3.86433 30.0131 3.42325 30.0131 2.8584C30.0131 2.29355 29.6075 1.85246 29.0757 1.85246H27.368ZM29.3036 7.14869C29.8612 7.14869 30.3018 6.6727 30.3018 6.07136C30.3018 5.47161 29.8627 5.00355 29.3036 5.00355H27.368V7.14869H29.3036Z" fill="#AD1480"/>
<path d="M33.8448 7.12172H37.0915V8.32123H32.6445V0.67041H37.0399V1.86992H33.8448V3.8564H36.7786V5.04797H33.8448V7.12172Z" fill="#AD1480"/>
<path d="M42.3445 8.32135L40.7888 5.53202H39.3682V8.32135H38.168V0.668945H41.1017C41.7611 0.668945 42.3187 0.906942 42.7669 1.39246C43.2227 1.86052 43.4597 2.44282 43.4597 3.13143C43.4597 4.10245 42.8763 4.99415 42.0057 5.34639L43.6709 8.32135H42.3445ZM39.3697 1.85258V4.41185H41.0942C41.7368 4.41185 42.2443 3.847 42.2443 3.13143C42.2443 2.42537 41.7292 1.851 41.0942 1.851H39.3697V1.85258Z" fill="#AD1480"/>
<path d="M48.7612 8.32159L47.2146 5.53068H45.794V8.32159H44.5938V0.666016H47.5275C48.1869 0.666016 48.7445 0.904012 49.1927 1.38953C49.65 1.85759 49.8855 2.43989 49.8855 3.12849C49.8855 4.09952 49.3021 4.99122 48.4315 5.34504L50.0967 8.32159H48.7612ZM45.794 1.84965V4.41051H47.5184C48.1611 4.41051 48.6685 3.84566 48.6685 3.13008C48.6685 2.42402 48.1535 1.84965 47.5184 1.84965H45.794Z" fill="#AD1480"/>
<path d="M50.9766 0.66748H52.1768V8.32147H50.9766V0.66748Z" fill="#AD1480"/>
<path d="M54.7979 7.12172H58.0447V8.32123H53.5977V0.67041H57.9945V1.86992H54.7979V3.8564H57.7317V5.04797H54.7979V7.12172Z" fill="#AD1480"/>
<path d="M58.8828 6.58077L59.922 5.94612C60.2183 6.81084 60.8184 7.23447 61.7391 7.23447C62.6522 7.23447 63.1004 6.82829 63.1004 6.22854C63.1004 5.91121 62.9728 5.68114 62.7373 5.52248C62.5003 5.35429 62.0612 5.17025 61.4352 4.97509C60.7333 4.75454 60.3869 4.61333 59.8962 4.27855C59.4237 3.92631 59.1867 3.42335 59.1867 2.73474C59.1867 2.05566 59.4146 1.52571 59.8795 1.12905C60.3353 0.722868 60.8944 0.529297 61.5446 0.529297C62.7191 0.529297 63.6246 1.16396 64.0971 2.21432L63.0822 2.82359C62.7783 2.11754 62.2617 1.75578 61.5431 1.75578C60.8412 1.75578 60.393 2.12547 60.393 2.70777C60.393 3.27261 60.7485 3.53759 61.8728 3.89934C62.1524 3.99613 62.3544 4.06752 62.482 4.11988C62.6173 4.16431 62.795 4.24364 63.0229 4.34043C63.2599 4.43721 63.4453 4.55145 63.5562 4.64982C63.9451 4.96715 64.3083 5.47329 64.3083 6.2206C64.3083 6.90921 64.0712 7.46454 63.5896 7.87072C63.1171 8.2769 62.4912 8.47047 61.7133 8.47047C60.2942 8.45937 59.2626 7.75331 58.8828 6.58077Z" fill="#AD1480"/>
</svg>
