<svg width="155" height="18" viewBox="0 0 155 18" fill="none" xmlns="http://www.w3.org/2000/svg">
<path d="M4.73121 17.6658L0 0.30957H3.10165L6.73794 13.6414L10.6342 0.30957H13.5272L17.4381 13.7098L21.089 0.313159L24.1907 0.30957L19.4595 17.6622L15.8598 17.6586L12.0807 4.69717L8.29792 17.6622L4.73121 17.6658Z" fill="white"/>
<path d="M26.332 0.320312H29.2872V17.655H26.332V0.320312Z" fill="white"/>
<path d="M35.6039 14.9361H42.7995V17.655H32.7109V0.320312H35.6039V14.9361Z" fill="white"/>
<path d="M51.8842 0.320006C54.3084 0.320006 56.3261 1.17955 57.9154 2.83749C59.5266 4.49543 60.3396 6.55617 60.3396 8.99453C60.3396 11.4149 59.5229 13.472 57.9154 15.1516C56.3261 16.8095 54.3084 17.6511 51.8842 17.6511H44.9375V0.316406H51.8842V0.320006ZM51.8842 14.9538C53.554 14.9538 54.9199 14.3927 55.9379 13.2742C56.9962 12.1558 57.5272 10.7136 57.5272 9.0161C57.5272 7.27545 56.9962 5.87645 55.9379 4.75797C54.8979 3.63948 53.5357 3.07844 51.8842 3.07844H47.8487V14.9538H51.8842Z" fill="white"/>
<path d="M75.9261 12.7027C75.9261 14.1233 75.4171 15.3029 74.3771 16.2452C73.3371 17.1838 72.114 17.6658 70.609 17.6658H63.0508V0.320312H70.0597C71.5062 0.320312 72.7293 0.802229 73.729 1.70133C74.747 2.62201 75.2377 3.76207 75.2377 5.12151C75.2377 6.64279 74.6261 7.80082 73.4433 8.66396C74.9887 9.46236 75.9261 10.9009 75.9261 12.7027ZM65.962 2.99963V7.55987H70.078C71.3597 7.55987 72.3374 6.56007 72.3374 5.27975C72.3374 3.99944 71.3597 2.99963 70.078 2.99963H65.962ZM70.6273 15.0044C71.9712 15.0044 73.0332 13.9255 73.0332 12.5625C73.0332 11.203 71.9749 10.1421 70.6273 10.1421H65.962V15.0044H70.6273Z" fill="white"/>
<path d="M81.5687 14.9433H89.3942V17.6622H78.6758V0.320312H89.2697V3.03919H81.5687V7.54188H88.6399V10.2428H81.5687V14.9433Z" fill="white"/>
<path d="M102.063 17.6619L98.3129 11.3394H94.889V17.6619H91.9961V0.316406H99.0673C100.657 0.316406 102 0.855866 103.081 1.95636C104.179 3.0173 104.751 4.33719 104.751 5.89803C104.751 8.09903 103.344 10.1202 101.246 10.9186L105.26 17.6619H102.063ZM94.8927 2.99932V8.80032H99.049C100.598 8.80032 101.821 7.52001 101.821 5.89803C101.821 4.29763 100.58 2.99573 99.049 2.99573H94.8927V2.99932Z" fill="white"/>
<path d="M117.533 17.6622L113.805 11.3361H110.381V17.6622H107.488V0.30957H114.559C116.149 0.30957 117.493 0.84903 118.573 1.94953C119.675 3.01047 120.243 4.33034 120.243 5.89118C120.243 8.09218 118.837 10.1134 116.738 10.9154L120.752 17.6622H117.533ZM110.381 2.99248V8.79708H114.537C116.086 8.79708 117.31 7.51676 117.31 5.89478C117.31 4.29438 116.068 2.99248 114.537 2.99248H110.381Z" fill="white"/>
<path d="M122.867 0.3125H125.76V17.6616H122.867V0.3125Z" fill="white"/>
<path d="M132.08 14.9433H139.906V17.6622H129.188V0.320312H139.785V3.03919H132.08V7.54188H139.152V10.2428H132.08V14.9433Z" fill="white"/>
<path d="M141.922 13.7167L144.427 12.2781C145.141 14.2382 146.587 15.1984 148.806 15.1984C151.007 15.1984 152.087 14.2777 152.087 12.9183C152.087 12.199 151.78 11.6775 151.212 11.3179C150.641 10.9367 149.583 10.5195 148.074 10.0771C146.382 9.57723 145.547 9.25714 144.364 8.4983C143.226 7.6999 142.654 6.55985 142.654 4.99901C142.654 3.45975 143.204 2.25854 144.324 1.35944C145.423 0.438761 146.77 0 148.338 0C151.168 0 153.351 1.43856 154.49 3.81938L152.043 5.20041C151.311 3.60001 150.066 2.78002 148.334 2.78002C146.642 2.78002 145.562 3.61798 145.562 4.93786C145.562 6.21818 146.419 6.81879 149.129 7.63877C149.802 7.85815 150.289 8.01998 150.597 8.13866C150.923 8.23936 151.351 8.41919 151.901 8.63857C152.472 8.85795 152.919 9.11688 153.186 9.33986C154.123 10.0591 154.999 11.2064 154.999 12.9003C154.999 14.4611 154.427 15.7199 153.267 16.6406C152.128 17.5612 150.619 18 148.744 18C145.324 17.9748 142.837 16.3744 141.922 13.7167Z" fill="white"/>
</svg>
