<svg width="69" height="14" viewBox="0 0 69 14" fill="none" xmlns="http://www.w3.org/2000/svg">
<path d="M32.1116 11.2038H33.4533L35.3286 3.83657V11.2038H36.838V1.4668H34.7645L32.8891 8.60837L31.0138 1.4668H28.8945V11.2038H30.1905V3.83657L32.1116 11.2038ZM43.1501 6.38368C43.1501 4.65874 42.342 4.01391 40.6649 4.01391C39.6129 4.01391 38.7896 4.35245 38.3017 4.65874V6.02902C38.7133 5.69048 39.6434 5.33582 40.4667 5.33582C41.2443 5.33582 41.5645 5.64212 41.5645 6.36756V6.75447H41.3205C38.9115 6.75447 37.8138 7.60888 37.8138 9.04364C37.8138 10.4784 38.6219 11.2845 39.8568 11.2845C40.7869 11.2845 41.1985 10.9782 41.4882 10.6396H41.5645C41.5645 10.8169 41.6407 11.0749 41.6864 11.2038H43.2416C43.1958 10.6396 43.1653 10.0431 43.1653 9.4789C43.1501 9.4789 43.1501 6.38368 43.1501 6.38368ZM41.5645 9.52727C41.3662 9.83357 41.0003 10.0915 40.421 10.0915C39.7654 10.0915 39.4452 9.65624 39.4452 9.05976C39.4452 8.23759 39.9788 7.94741 41.3662 7.94741H41.6102V9.54339H41.5645V9.52727ZM45.8792 4.14287H44.4156V13.2351H46.0012V10.3978C46.4129 11.0426 46.977 11.3489 47.6783 11.3489C49.2335 11.3489 50.2855 10.0593 50.2855 7.68948C50.2855 5.3197 49.264 4.03003 47.7546 4.03003C47.0227 4.03003 46.4129 4.36857 45.9555 5.06177C45.9707 5.04565 45.8792 4.14287 45.8792 4.14287ZM47.2362 10.0431C46.4281 10.0431 45.9707 9.3177 45.9707 7.72172C45.9707 6.07739 46.4129 5.35194 47.3124 5.35194C48.1662 5.35194 48.6084 6.07739 48.6084 7.67336C48.6084 9.3177 48.1662 10.0431 47.2362 10.0431ZM55.2102 11.2038H57.0092L54.4783 7.41543L56.7196 4.14287H55.1339L52.8927 7.41543V4.14287H51.307V11.2038H52.8927V7.75396L55.2102 11.2038ZM62.2998 10.7363V9.36606C61.8119 9.7046 61.0039 10.0109 60.2263 10.0109C59.0828 10.0109 58.6406 9.44666 58.5492 8.23759H62.3303V7.33482C62.3303 4.88444 61.3088 3.98166 59.7231 3.98166C57.8021 3.98166 56.872 5.52928 56.872 7.68948C56.872 10.1399 58.0155 11.3489 60.0128 11.3489C61.1258 11.3328 61.8577 11.0749 62.2998 10.7363ZM59.7384 5.35194C60.516 5.35194 60.7599 6.04514 60.7599 6.89955V7.02852H58.5492C58.5949 5.91618 59.0065 5.35194 59.7384 5.35194ZM68.002 5.48091V4.14287H62.7115V5.48091H64.5868V11.2038H66.1725V5.48091H68.002Z" fill="black"/>
<path d="M19.4891 12.929C22.8739 12.929 25.603 10.0433 25.603 6.4645C25.603 2.88565 22.8739 0 19.4891 0C16.1044 0 13.3752 2.88565 13.3752 6.4645C13.3448 10.0433 16.1196 12.929 19.4891 12.929Z" fill="#FED42B"/>
<path d="M6.42248 12.929C9.79908 12.929 12.5364 10.0347 12.5364 6.4645C12.5364 2.89425 9.79908 0 6.42248 0C3.04587 0 0.308594 2.89425 0.308594 6.4645C0.308594 10.0347 3.04587 12.929 6.42248 12.929Z" fill="#FC3F1D"/>
<path d="M7.30838 3.62745H6.69851C5.6465 3.62745 5.11287 4.19168 5.11287 5.04609C5.11287 5.99723 5.47879 6.46474 6.25636 7.02897L6.86623 7.49648L5.11287 10.3821H3.67969L5.35681 7.75441C4.38103 7.02897 3.8474 6.33577 3.8474 5.1267C3.8474 3.61133 4.82318 2.57959 6.69851 2.57959H8.57384V10.3338H7.35412V3.61133H7.30838V3.62745Z" fill="white"/>
<path d="M16.4875 3.54673L11.1055 10.9946L12.5386 12.7195L16.5333 7.12558L16.1216 10.1886L18.3628 11.0107L21.092 6.40013C20.97 7.25454 20.7718 9.23742 22.5557 9.85001C25.361 10.7528 27.8157 5.41675 28.944 2.70844L27.3126 1.80566C26.0471 4.61071 24.0956 7.70593 23.318 7.49636C22.5404 7.28678 23.2418 4.65907 23.6839 2.96637V2.91801L21.1987 2.01524L18.2256 7.14169L18.6373 4.33665L16.4875 3.54673Z" fill="black"/>
</svg>
