<svg width="106" height="25" viewBox="0 0 106 25" fill="none" xmlns="http://www.w3.org/2000/svg">
<path d="M33.5704 21.1632H36.2781L40.0627 7.24724V21.1632H43.1088V2.771H38.9242L35.1396 16.2606L31.355 2.771H27.0781V21.1632H29.6935V7.24724L33.5704 21.1632ZM55.8472 12.0584C55.8472 8.80023 54.2165 7.5822 50.8319 7.5822C48.7088 7.5822 47.0473 8.22166 46.0627 8.80023V11.3885C46.8934 10.7491 48.7703 10.0792 50.4319 10.0792C52.0011 10.0792 52.6472 10.6577 52.6472 12.028V12.7588H52.1549C47.2934 12.7588 45.078 14.3727 45.078 17.0828C45.078 19.7929 46.7088 21.3154 49.2011 21.3154C51.078 21.3154 51.9088 20.7369 52.4934 20.0974H52.6472C52.6472 20.4324 52.8011 20.9196 52.8934 21.1632H56.0318C55.9395 20.0974 55.878 18.9707 55.878 17.905C55.8472 17.905 55.8472 12.0584 55.8472 12.0584ZM52.6472 17.9963C52.2472 18.5749 51.5088 19.0621 50.3396 19.0621C49.0165 19.0621 48.3703 18.2399 48.3703 17.1133C48.3703 15.5603 49.4472 15.0122 52.2472 15.0122H52.7395V18.0268H52.6472V17.9963ZM61.3549 7.82581H58.401V25H61.601V19.6407C62.4318 20.8587 63.5703 21.4372 64.9856 21.4372C68.1241 21.4372 70.2471 19.0012 70.2471 14.525C70.2471 10.0487 68.1856 7.61265 65.1395 7.61265C63.6626 7.61265 62.4318 8.25211 61.5087 9.56149C61.5395 9.53104 61.3549 7.82581 61.3549 7.82581ZM64.0933 18.9707C62.4626 18.9707 61.5395 17.6005 61.5395 14.5859C61.5395 11.4799 62.4318 10.1096 64.2472 10.1096C65.9702 10.1096 66.8625 11.4799 66.8625 14.4945C66.8625 17.6005 65.9702 18.9707 64.0933 18.9707ZM80.1856 21.1632H83.8163L78.7086 14.0073L83.2317 7.82581H80.0317L75.5087 14.0073V7.82581H72.3087V21.1632H75.5087V14.6468L80.1856 21.1632ZM94.4932 20.2801V17.6918C93.5086 18.3313 91.8778 18.9098 90.3086 18.9098C88.0009 18.9098 87.1086 17.8441 86.924 15.5603H94.5547V13.855C94.5547 9.22654 92.4932 7.5213 89.2932 7.5213C85.4163 7.5213 83.5394 10.4446 83.5394 14.525C83.5394 19.1535 85.8471 21.4372 89.8778 21.4372C92.124 21.4068 93.6009 20.9196 94.4932 20.2801ZM89.324 10.1096C90.8932 10.1096 91.3855 11.419 91.3855 13.0329V13.2765H86.924C87.0163 11.1754 87.8471 10.1096 89.324 10.1096ZM106.001 10.3532V7.82581H95.3239V10.3532H99.1086V21.1632H102.309V10.3532H106.001Z" fill="white"/>
<path fill-rule="evenodd" clip-rule="evenodd" d="M24.6768 12.2107C24.6768 18.9545 19.1527 24.4214 12.3384 24.4214C5.52409 24.4214 0 18.9545 0 12.2107C0 5.46692 5.52409 0 12.3384 0C19.1527 0 24.6768 5.46692 24.6768 12.2107ZM12.8931 6.85135H14.1238V6.82089H14.2161V19.5188H16.6777V4.87205H12.8931C9.10846 4.87205 7.13924 6.82089 7.13924 9.68325C7.13924 11.9671 8.21616 13.2764 10.1854 14.6467L6.80078 19.6102H9.69308L13.2315 14.1595L12.0008 13.2764C10.4315 12.2107 9.69308 11.3276 9.69308 9.531C9.69308 7.91711 10.77 6.85135 12.8931 6.85135Z" fill="white"/>
</svg>
